<svg width="326" height="47" viewBox="0 0 326 47" fill="none" xmlns="http://www.w3.org/2000/svg">
<g filter="url(#filter0_d_3248_18768)">
<path d="M145.004 11.0511L134.953 24.693L145 36.5L145.004 38.4545H138.024L131.442 29.4796L124.861 38.4545H118V36.5L128.052 24.8126L118 11.0511V9H125L124.98 11.0511L131.562 20.026L138.144 11.0511V9.05211H145.004V11.0511Z" fill="#655C77"/>
<path d="M170.303 38.9331C162.405 38.9331 155.704 32.4313 155.704 24.7328C155.704 17.0344 162.405 10.5724 170.303 10.5724C174.119 10.5724 178.295 10.7169 180.913 13.1594C180.913 14.1047 180.913 14.3615 180.913 15.1596L176.645 18.9889C175.09 17.154 172.776 15.9175 170.303 15.9175C165.676 15.9175 161.767 19.9861 161.767 24.7328C161.767 29.5195 165.676 33.5881 170.303 33.5881C172.816 33.5881 175.09 32.3515 176.645 30.5167L180.913 32.3558V34.346C178.241 37.1381 174.452 38.9331 170.303 38.9331Z" fill="#655C77"/>
<path d="M194.793 38.9331C188.61 38.9331 183.545 34.0667 183.545 28.1234C183.545 27.1025 183.545 27 183.545 26C184.889 21.4859 189.672 17.3535 194.793 17.3535C200.758 17.3535 205.702 20.3461 206.042 26C206.054 26.2063 206.042 27.9141 206.042 28.1234C206.042 34.0667 200.976 38.9331 194.793 38.9331ZM194.793 34.0268C197.904 34.0268 200.417 31.3543 200.417 28.1234C200.417 24.8924 197.904 22.2598 194.793 22.2598C191.682 22.2598 189.129 24.8924 189.129 28.1234C189.129 31.3543 191.682 34.0268 194.793 34.0268Z" fill="#655C77"/>
<path d="M222.191 17.3535C226.658 17.3535 229.81 20.6243 229.81 25.3312V38.4545H224.225V26.5677C224.225 24.0149 222.59 22.2598 220.276 22.2598C217.843 22.2598 215.968 24.0149 215.968 26.2486V38.4545H210.144V17.8321H215.968V20.3451C217.245 18.5102 219.518 17.3535 222.191 17.3535Z" fill="#655C77"/>
<path d="M247.043 17.3535C251.511 17.3535 254.662 20.6243 254.662 25.3312V38.4545H249.077V26.5677C249.077 24.0149 247.442 22.2598 245.129 22.2598C242.695 22.2598 240.821 24.0149 240.821 26.2486V38.4545H234.997V17.8321H240.821V20.3451C242.097 18.5102 244.371 17.3535 247.043 17.3535Z" fill="#655C77"/>
<path d="M269.303 34.4257C271.217 34.4257 273.332 33.5881 274.648 32.3914L277.919 33.7529V35.7421C276.084 37.6567 272.534 38.9331 269.502 38.9331C263.359 38.9331 258.493 34.4257 258.493 28.0835C258.493 27.9258 258.5 27.5 258.493 26.2087C258.721 20.2303 263.313 17.3535 269.183 17.3535C275.244 17.3535 279.104 20.8546 279.554 27.6829C279.554 28.3437 279.554 29.2034 279.554 29.679H264.038C264.556 32.4712 266.471 34.4257 269.303 34.4257ZM269.263 21.8609C266.67 21.8609 264.716 23.5761 264.077 26.2087H273.97C273.491 23.6559 271.856 21.8609 269.263 21.8609Z" fill="#655C77"/>
<path d="M293.227 38.9331C287.164 38.9331 282.018 33.987 282.018 28.1234C282.018 27.9759 282.018 27.6829 282.018 26.2087C282.27 20.5419 287.357 17.3535 293.307 17.3535C296.427 17.3535 299.439 16.9236 301.404 18.8655C301.404 19.1931 301.404 20.0296 301.404 20.8637L297.535 24.1744C296.498 23.0176 294.862 22.2598 293.267 22.2598C290.235 22.2598 287.682 24.9323 287.682 28.0835C287.682 31.3144 290.235 34.0268 293.307 34.0268C294.902 34.0268 296.577 33.2291 297.654 32.0324L301.524 33.3047V35.3033C299.489 37.537 296.697 38.9331 293.227 38.9331Z" fill="#655C77"/>
<path d="M315.604 33.3487L317 35.1445V37.1381C315.803 38.2151 313.929 38.9331 312.293 38.9331C308.623 38.9331 306.071 36.3404 306.071 32.6308V22.539H303.238V17.8321H306.071V12.168H311.695V17.8321H316.162V22.539H311.695V31.7133C311.695 33.0695 312.532 34.0268 313.609 34.0268C314.407 34.0268 315.205 33.7476 315.604 33.3487Z" fill="#655C77"/>
</g>
<path d="M145.004 9.05111L134.953 22.693L145.004 36.4545H138.024L131.442 27.4796L124.861 36.4545H118L128.052 22.8126L118 9.05111H124.98L131.562 18.026L138.144 9.05111H145.004Z" fill="white"/>
<path d="M170.303 36.9331C162.405 36.9331 155.704 30.4313 155.704 22.7328C155.704 15.0344 162.405 8.57245 170.303 8.57245C174.452 8.57245 178.241 10.3275 180.913 13.1596L176.645 16.9889C175.09 15.154 172.776 13.9175 170.303 13.9175C165.676 13.9175 161.767 17.9861 161.767 22.7328C161.767 27.5195 165.676 31.5881 170.303 31.5881C172.816 31.5881 175.09 30.3515 176.645 28.5167L180.913 32.346C178.241 35.1381 174.452 36.9331 170.303 36.9331Z" fill="white"/>
<path d="M194.793 36.9331C188.61 36.9331 183.545 32.0667 183.545 26.1234C183.545 20.18 188.61 15.3535 194.793 15.3535C200.976 15.3535 206.042 20.18 206.042 26.1234C206.042 32.0667 200.976 36.9331 194.793 36.9331ZM194.793 32.0268C197.904 32.0268 200.417 29.3543 200.417 26.1234C200.417 22.8924 197.904 20.2598 194.793 20.2598C191.682 20.2598 189.129 22.8924 189.129 26.1234C189.129 29.3543 191.682 32.0268 194.793 32.0268Z" fill="white"/>
<path d="M222.191 15.3535C226.658 15.3535 229.81 18.6243 229.81 23.3312V36.4545H224.225V24.5677C224.225 22.0149 222.59 20.2598 220.276 20.2598C217.843 20.2598 215.968 22.0149 215.968 24.2486V36.4545H210.144V15.8321H215.968V18.3451C217.245 16.5102 219.518 15.3535 222.191 15.3535Z" fill="white"/>
<path d="M247.043 15.3535C251.511 15.3535 254.662 18.6243 254.662 23.3312V36.4545H249.077V24.5677C249.077 22.0149 247.442 20.2598 245.129 20.2598C242.695 20.2598 240.821 22.0149 240.821 24.2486V36.4545H234.997V15.8321H240.821V18.3451C242.097 16.5102 244.371 15.3535 247.043 15.3535Z" fill="white"/>
<path d="M269.303 32.4257C271.217 32.4257 273.332 31.5881 274.648 30.3914L277.919 33.7421C276.084 35.6567 272.534 36.9331 269.502 36.9331C263.359 36.9331 258.493 32.4257 258.493 26.0835C258.493 19.8609 263.16 15.3535 269.183 15.3535C275.645 15.3535 279.554 20.0204 279.554 27.679H264.038C264.556 30.4712 266.471 32.4257 269.303 32.4257ZM269.263 19.8609C266.67 19.8609 264.716 21.5761 264.077 24.2087H273.97C273.491 21.6559 271.856 19.8609 269.263 19.8609Z" fill="white"/>
<path d="M293.227 36.9331C287.164 36.9331 282.018 31.987 282.018 26.1234C282.018 20.2598 287.204 15.3535 293.307 15.3535C296.617 15.3535 299.41 16.7097 301.404 18.8637L297.535 22.1744C296.498 21.0176 294.862 20.2598 293.267 20.2598C290.235 20.2598 287.682 22.9323 287.682 26.0835C287.682 29.3144 290.235 32.0268 293.307 32.0268C294.902 32.0268 296.577 31.2291 297.654 30.0324L301.524 33.3033C299.489 35.537 296.697 36.9331 293.227 36.9331Z" fill="white"/>
<path d="M315.604 31.3487L317 35.1381C315.803 36.2151 313.929 36.9331 312.293 36.9331C308.623 36.9331 306.071 34.3404 306.071 30.6308V20.539H303.238V15.8321H306.071V10.168H311.695V15.8321H316.162V20.539H311.695V29.7133C311.695 31.0695 312.532 32.0268 313.609 32.0268C314.407 32.0268 315.205 31.7476 315.604 31.3487Z" fill="white"/>
<mask id="mask0_3248_18768" style="mask-type:luminance" maskUnits="userSpaceOnUse" x="8" y="9" width="97" height="30">
<path d="M104.549 9H8V38.7074H104.549V9Z" fill="white"/>
</mask>
<g mask="url(#mask0_3248_18768)">
<path fill-rule="evenodd" clip-rule="evenodd" d="M66.9445 24.9002C66.9445 32.5428 60.7869 38.7382 53.1911 38.7382C45.595 38.7382 39.4375 32.5428 39.4375 24.9002C39.4375 17.2577 45.595 11.0621 53.1911 11.0621C60.7869 11.0621 66.9445 17.2577 66.9445 24.9002ZM90.7608 11.0743C98.3565 11.0743 104.514 17.2766 104.514 24.9276H98.097C98.0905 32.5563 91.9353 38.7385 84.3434 38.7385C76.7479 38.7385 70.59 32.5498 70.59 24.9156H77.0074C77.0139 17.2701 83.1691 11.0743 90.7608 11.0743ZM21.7535 11.0621C29.3492 11.0621 35.5069 17.2577 35.5069 24.9003V38.7382H8V24.9003C8 17.2577 14.1577 11.0621 21.7535 11.0621Z" fill="url(#paint0_linear_3248_18768)"/>
<path fill-rule="evenodd" clip-rule="evenodd" d="M21.7535 9C29.3492 9 35.5069 15.1955 35.5069 22.8381V36.6762H8V22.8381C8 15.1955 14.1577 9 21.7535 9ZM66.9445 22.8381C66.9445 30.4807 60.7869 36.6762 53.1911 36.6762C45.595 36.6762 39.4375 30.4807 39.4375 22.8381C39.4375 15.1955 45.595 9 53.1911 9C60.7869 9 66.9445 15.1955 66.9445 22.8381ZM90.7608 9.01218C98.3565 9.01218 104.514 15.2145 104.514 22.8654H98.097C98.0905 30.4941 91.9353 36.6764 84.3434 36.6764C76.7479 36.6764 70.59 30.4876 70.59 22.8534H77.0074C77.0139 15.208 83.1691 9.01218 90.7608 9.01218Z" fill="url(#paint1_linear_3248_18768)"/>
<mask id="mask1_3248_18768" style="mask-type:luminance" maskUnits="userSpaceOnUse" x="8" y="9" width="97" height="28">
<path fill-rule="evenodd" clip-rule="evenodd" d="M21.7535 9C29.3492 9 35.5069 15.1955 35.5069 22.8381V36.6762H8V22.8381C8 15.1955 14.1577 9 21.7535 9ZM66.9445 22.8381C66.9445 30.4807 60.7869 36.6762 53.1911 36.6762C45.595 36.6762 39.4375 30.4807 39.4375 22.8381C39.4375 15.1955 45.595 9 53.1911 9C60.7869 9 66.9445 15.1955 66.9445 22.8381ZM90.7608 9.01218C98.3565 9.01218 104.514 15.2145 104.514 22.8654H98.097C98.0905 30.4941 91.9353 36.6764 84.3434 36.6764C76.7479 36.6764 70.59 30.4876 70.59 22.8534H77.0074C77.0139 15.208 83.1691 9.01218 90.7608 9.01218Z" fill="url(#paint2_linear_3248_18768)"/>
</mask>
<g mask="url(#mask1_3248_18768)">
<path d="M35.5069 36.6761V37.501H36.3268V36.6761H35.5069ZM8 36.6761H7.18018V37.501H8V36.6761ZM104.514 22.8654V23.6902H105.334V22.8654H104.514ZM98.097 22.8654V22.0405H97.278L97.2771 22.8646L98.097 22.8654ZM70.59 22.8533V22.0285H69.7701V22.8533H70.59ZM77.0074 22.8533V23.6782H77.8265L77.8274 22.854L77.0074 22.8533ZM36.3268 22.838C36.3268 14.7399 29.802 8.17505 21.7535 8.17505V9.82479C28.8965 9.82479 34.6871 15.651 34.6871 22.838H36.3268ZM36.3268 36.6761V22.838H34.6871V36.6761H36.3268ZM8 37.501H35.5069V35.8513H8V37.501ZM7.18018 22.838V36.6761H8.81983V22.838H7.18018ZM21.7535 8.17505C13.705 8.17505 7.18018 14.7399 7.18018 22.838H8.81983C8.81983 15.651 14.6105 9.82479 21.7535 9.82479V8.17505ZM53.1911 37.501C61.2395 37.501 67.7644 30.9361 67.7644 22.838H66.1246C66.1246 30.025 60.334 35.8513 53.1911 35.8513V37.501ZM38.6178 22.838C38.6178 30.9361 45.1424 37.501 53.1911 37.501V35.8513C46.048 35.8513 40.2574 30.025 40.2574 22.838H38.6178ZM53.1911 8.17505C45.1424 8.17505 38.6178 14.7399 38.6178 22.838H40.2574C40.2574 15.651 46.048 9.82479 53.1911 9.82479V8.17505ZM67.7644 22.838C67.7644 14.7399 61.2395 8.17505 53.1911 8.17505V9.82479C60.334 9.82479 66.1246 15.651 66.1246 22.838H67.7644ZM105.334 22.8654C105.334 14.7597 98.8104 8.18723 90.7608 8.18723V9.83697C97.9031 9.83697 103.695 15.6691 103.695 22.8654H105.334ZM98.097 23.6902H104.514V22.0405H98.097V23.6902ZM84.3434 37.5011C92.3871 37.5011 98.9099 30.9508 98.917 22.8661L97.2771 22.8646C97.2712 30.0372 91.4836 35.8514 84.3434 35.8514V37.5011ZM69.7701 22.8533C69.7701 30.944 76.2959 37.5011 84.3434 37.5011V35.8514C77.1996 35.8514 71.41 30.0311 71.41 22.8533H69.7701ZM77.0074 22.0285H70.59V23.6782H77.0074V22.0285ZM90.7608 8.18723C82.7156 8.18723 76.1943 14.7528 76.1875 22.8526L77.8274 22.854C77.8333 15.663 83.6224 9.83697 90.7608 9.83697V8.18723Z" fill="url(#paint3_linear_3248_18768)"/>
</g>
</g>
<defs>
<filter id="filter0_d_3248_18768" x="115.721" y="9" width="203.559" height="34.4918" filterUnits="userSpaceOnUse" color-interpolation-filters="sRGB">
<feFlood flood-opacity="0" result="BackgroundImageFix"/>
<feColorMatrix in="SourceAlpha" type="matrix" values="0 0 0 0 0 0 0 0 0 0 0 0 0 0 0 0 0 0 127 0" result="hardAlpha"/>
<feOffset dy="2.27934"/>
<feGaussianBlur stdDeviation="1.13967"/>
<feComposite in2="hardAlpha" operator="out"/>
<feColorMatrix type="matrix" values="0 0 0 0 0 0 0 0 0 0 0 0 0 0 0 0 0 0 0.25 0"/>
<feBlend mode="normal" in2="BackgroundImageFix" result="effect1_dropShadow_3248_18768"/>
<feBlend mode="normal" in="SourceGraphic" in2="effect1_dropShadow_3248_18768" result="shape"/>
</filter>
<linearGradient id="paint0_linear_3248_18768" x1="8.00826" y1="38.7311" x2="33.6035" y2="-19.899" gradientUnits="userSpaceOnUse">
<stop stop-color="#B50036"/>
<stop offset="1" stop-color="#AF5F00"/>
</linearGradient>
<linearGradient id="paint1_linear_3248_18768" x1="8.00826" y1="36.6688" x2="33.6035" y2="-21.961" gradientUnits="userSpaceOnUse">
<stop stop-color="#FF2E6C"/>
<stop offset="1" stop-color="#FF9416"/>
</linearGradient>
<linearGradient id="paint2_linear_3248_18768" x1="8.00826" y1="36.6688" x2="33.6035" y2="-21.961" gradientUnits="userSpaceOnUse">
<stop stop-color="#FF2E6C"/>
<stop offset="1" stop-color="#FF9416"/>
</linearGradient>
<linearGradient id="paint3_linear_3248_18768" x1="8.00826" y1="36.6687" x2="33.6035" y2="-21.9611" gradientUnits="userSpaceOnUse">
<stop stop-color="#FF2E6C"/>
<stop offset="1" stop-color="#FF9416"/>
</linearGradient>
</defs>
</svg>
