<svg width="26" height="25" viewBox="0 0 26 25" fill="none" xmlns="http://www.w3.org/2000/svg">
<path fill-rule="evenodd" clip-rule="evenodd" d="M6.82361 12.504C6.82361 11.6755 7.49518 11.004 8.32361 11.004H24.0736C24.902 11.004 25.5736 11.6755 25.5736 12.504C25.5736 13.3324 24.902 14.004 24.0736 14.004H8.32361C7.49518 14.004 6.82361 13.3324 6.82361 12.504Z" fill="#19072C"/>
<path fill-rule="evenodd" clip-rule="evenodd" d="M19.2629 7.69337C19.8487 7.10758 20.7985 7.10758 21.3843 7.69337L25.1343 11.4434C25.7201 12.0292 25.7201 12.9789 25.1343 13.5647L21.3843 17.3147C20.7985 17.9005 19.8487 17.9005 19.2629 17.3147C18.6772 16.7289 18.6772 15.7792 19.2629 15.1934L21.9523 12.504L19.2629 9.81469C18.6772 9.2289 18.6772 8.27915 19.2629 7.69337Z" fill="#19072C"/>
<path fill-rule="evenodd" clip-rule="evenodd" d="M2.86191 0.50186C2.88678 0.50062 2.91168 0.5 2.93659 0.5H15.2096C15.2345 0.5 15.2594 0.50062 15.2843 0.50186C16.8857 0.581684 18.1245 1.93024 18.0736 3.52799V8C18.0736 8.82843 17.402 9.5 16.5736 9.5C15.7452 9.5 15.0736 8.82843 15.0736 8V3.5H3.07359V21.5H15.0736V17C15.0736 16.1716 15.7452 15.5 16.5736 15.5C17.402 15.5 18.0736 16.1716 18.0736 17V21.472C18.1245 23.0698 16.8857 24.4183 15.2843 24.4981C15.2594 24.4994 15.2345 24.5 15.2096 24.5H2.93659C2.91133 24.5 2.88609 24.4994 2.86087 24.4981C1.26025 24.4172 0.0226357 23.069 0.0735856 21.472V3.52847C0.0218366 1.93075 1.2604 0.581692 2.86191 0.50186Z" fill="#19072C"/>
</svg>
